{"title":"Dawning *2011* [DVDSCR.XviD-miguel] [ENG]","uid":6438037,"size":1474159350,"categoryP":"video","categoryS":"movies","magnet":"?xt=urn:btih:80a0afaec115ec3b75376f3576c9ec3d966b3954&amp;dn=Dawning+%2A2011%2A+%5BDVDSCR.XviD-miguel%5D+%5BENG%5D&amp;tr=udp%3A%2F%2Ftracker.openbittorrent.com%3A80&amp;tr=udp%3A%2F%2Fopen.demonii.com%3A1337&amp;tr=udp%3A%2F%2Ftracker.coppersurfer.tk%3A6969&amp;tr=udp%3A%2F%2Fexodus.desync.com%3A6969","seeders":1,"leechers":0,"uploader":"miguel1983","files":-1,"time":1306865145,"description":" &lt;a href=&quot;http://img90.imageshack.us/img90/4818/dawning01.jpg&quot; rel=&quot;nofollow&quot; target=&quot;_NEW&quot;&gt;http://img90.imageshack.us/img90/4818/dawning01.jpg&lt;/a&gt;\n\nCountry.......: USA\nGenre.........: Drama, Horror, Thriller\nDate release..: 2011 [World]\nDirector......: Gregg Holtgrewe\nWriters.......: Gregg Holtgrewe, Matthew Wilkins\nDuration......: 80 min.\nMore..........: http://www.imdb.com/title/tt1530660\nTrailer.......:\n\nPilot :\nTakes place at a Northern Minnesota lake cabin where a brother and sister visit their father and step-mom. As the first night unfolds with uncomfortable small-talk and tension, tragedy strikes. \n\nCats :\nDavid Coral   \t ...  \tRichard\nJonas Goslow \t... \tChris\nChristine Kellogg-Darrin \t... \tLaura\nDaniel Jay Salmen \t... \tThe Man (as Danny Salmen)\nNajarra Townsend \t... \tAurora \n\nData Technical :\n!!! SAMPLE !!!\nAudio.....: English\nSubtitles.: None\nFormat                           : AVI\nFormat/Info                      : Audio Video Interleave\nFile size                        : 1.37 GiB\nDuration                         : 1h 20mn\nOverall bit rate                 : 2 443 Kbps\nWriting application              : VirtualDubMod 1.5.4.1 (build 2178/release)\nWriting library                  : VirtualDubMod build 2178/release\nVideo\nID                               : 0\nFormat                           : MPEG-4 Visual\nFormat profile                   : Advanced Simple@L5\nFormat settings, BVOP            : No\nFormat settings, QPel            : No\nFormat settings, GMC             : No warppoints\nFormat settings, Matrix          : Custom\nCodec ID                         : XVID\nCodec ID/Hint                    : XviD\nDuration                         : 1h 20mn\nBit rate                         : 2 243 Kbps\nWidth                            : 720 pixels\nHeight                           : 416 pixels\nDisplay aspect ratio             : 16:9\nFrame rate                       : 29.970 fps\nColor space                      : YUV\nChroma subsampling               : 4:2:0\nBit depth                        : 8 bits\nScan type                        : Progressive\nBits/(Pixel*Frame)               : 0.250\nStream size                      : 1.26 GiB (92%)\nWriting library                  : XviD 63\nAudio\nID                               : 1\nFormat                           : AC-3\nFormat/Info                      : Audio Coding 3\nMode extension                   : CM (complete main)\nCodec ID                         : 2000\nDuration                         : 1h 20mn\nBit rate mode                    : Constant\nBit rate                         : 192 Kbps\nChannel(s)                       : 2 channels\nChannel positions                : Front: L R\nSampling rate                    : 48.0 KHz\nBit depth                        : 16 bits\nStream size                      : 110 MiB (8%)\nAlignment                        : Aligned on interleaves\nInterleave, duration             : 96 ms (2.88 video frames)\nInterleave, preload duration     : 96 ms\n\nScreen : &lt;a href=&quot;\nhttp://img607.imageshack.us/img607/8196/dawning2011s1.jpg&quot; rel=&quot;nofollow&quot; target=&quot;_NEW&quot;&gt;\nhttp://img607.imageshack.us/img607/8196/dawning2011s1.jpg&lt;/a&gt; &lt;a href=&quot;\nhttp://img713.imageshack.us/img713/7628/dawning2011s2.jpg&quot; rel=&quot;nofollow&quot; target=&quot;_NEW&quot;&gt;\nhttp://img713.imageshack.us/img713/7628/dawning2011s2.jpg&lt;/a&gt; &lt;a href=&quot;\nhttp://img607.imageshack.us/img607/2640/dawning2011s3.jpg&quot; rel=&quot;nofollow&quot; target=&quot;_NEW&quot;&gt;\nhttp://img607.imageshack.us/img607/2640/dawning2011s3.jpg&lt;/a&gt; &lt;a href=&quot;\nhttp://img809.imageshack.us/img809/5425/dawning2011s4.jpg&quot; rel=&quot;nofollow&quot; target=&quot;_NEW&quot;&gt;\nhttp://img809.imageshack.us/img809/5425/dawning2011s4.jpg&lt;/a&gt; &lt;a href=&quot;\nhttp://img715.imageshack.us/img715/5982/dawning2011s5.jpg&quot; rel=&quot;nofollow&quot; target=&quot;_NEW&quot;&gt;\nhttp://img715.imageshack.us/img715/5982/dawning2011s5.jpg&lt;/a&gt;","torrent":{"xt":"urn:btih:80a0afaec115ec3b75376f3576c9ec3d966b3954","amp;dn":"Dawning+%2A2011%2A+%5BDVDSCR.XviD-miguel%5D+%5BENG%5D","amp;tr":["udp%3A%2F%2Ftracker.openbittorrent.com%3A80","udp%3A%2F%2Fopen.demonii.com%3A1337","udp%3A%2F%2Ftracker.coppersurfer.tk%3A6969","udp%3A%2F%2Fexodus.desync.com%3A6969"],"infoHash":"80a0afaec115ec3b75376f3576c9ec3d966b3954","infoHashBuffer":{"type":"Buffer","data":[128,160,175,174,193,21,236,59,117,55,111,53,118,201,236,61,150,107,57,84]},"announce":[],"urlList":[]}}